<svg xmlns="http://www.w3.org/2000/svg" version="1.1" xmlns:xlink="http://www.w3.org/1999/xlink" width="512" height="512" x="0" y="0" viewBox="0 0 48 48" style="enable-background:new 0 0 512 512" xml:space="preserve" class=""><g><path d="M24 2C11.85 2 2 11.85 2 24s9.85 22 22 22 22-9.85 22-22S36.15 2 24 2zm-1.667 30c0 1.103-.897 2-2 2H17c-1.103 0-2-.897-2-2V16c0-1.103.897-2 2-2h3.333c1.103 0 2 .897 2 2zM33 32c0 1.103-.897 2-2 2h-3.333c-1.103 0-2-.897-2-2V16c0-1.103.897-2 2-2H31c1.103 0 2 .897 2 2z" fill="#ffffff" opacity="1" data-original="#000000" class=""></path></g></svg>